<svg xmlns="http://www.w3.org/2000/svg" width="42" height="42" viewBox="0 0 42 42">
  <g id="Group_7017" data-name="Group 7017" transform="translate(-715 -604)">
    <g id="Rectangle_45263" data-name="Rectangle 45263" transform="translate(715 604)" fill="none" stroke="#e4e8ee" stroke-width="1">
      <rect width="42" height="42" rx="8" stroke="none"/>
      <rect x="0.5" y="0.5" width="41" height="41" rx="7.5" fill="none"/>
    </g>
    <path id="icons8-funnel" d="M6.972,6A.981.981,0,0,0,6,6.972v1.2a2.918,2.918,0,0,0,1.112,2.291l0,0,3.941,3.075v5.875a.583.583,0,0,0,.922.475L14.7,17.947a.583.583,0,0,0,.245-.475V13.542l3.941-3.075,0,0A2.918,2.918,0,0,0,20,8.174v-1.2A.981.981,0,0,0,19.028,6Zm.194,1.167H18.833V8.174a1.748,1.748,0,0,1-.667,1.374L14,12.8a.583.583,0,0,0-.225.46v3.915l-1.556,1.111V13.257A.583.583,0,0,0,12,12.8L7.834,9.548a1.748,1.748,0,0,1-.667-1.374Z" transform="translate(722 613)" fill="#091b29"/>
    <g id="Ellipse_40005" data-name="Ellipse 40005" transform="translate(738 617)" fill="#5078e1" stroke="#fff" stroke-width="1.5">
      <circle cx="3" cy="3" r="3" stroke="none"/>
      <circle cx="3" cy="3" r="3.75" fill="none"/>
    </g>
  </g>
</svg>
